<?xml version="1.0" standalone="no"?>
<!DOCTYPE svg PUBLIC "-//W3C//DTD SVG 20010904//EN"
 "http://www.w3.org/TR/2001/REC-SVG-20010904/DTD/svg10.dtd">
<svg version="1.0" xmlns="http://www.w3.org/2000/svg"
 width="1187.000000pt" height="416.000000pt" viewBox="0 0 1187.000000 416.000000"
 preserveAspectRatio="xMidYMid meet">

<g transform="translate(0.000000,416.000000) scale(0.100000,-0.100000)"
fill="#000000" stroke="none">
<path d="M9890 3510 c-348 -41 -653 -190 -906 -444 -251 -252 -389 -530 -438
-884 -28 -199 -15 -396 39 -600 110 -416 396 -768 788 -970 56 -29 115 -56
132 -62 16 -5 59 -20 95 -33 198 -75 541 -90 801 -36 425 88 833 405 1036 804
115 228 163 433 163 696 0 380 -112 693 -351 982 -224 272 -527 454 -879 527
-119 24 -358 34 -480 20z m297 -511 c15 -5 40 -22 55 -36 l28 -26 -48 -33
c-26 -17 -58 -44 -72 -59 -14 -15 -41 -33 -60 -42 l-35 -14 38 -31 c47 -38 70
-78 56 -99 -9 -12 -11 -12 -16 0 -13 33 -61 73 -98 82 -22 5 -68 6 -102 3 -35
-4 -63 -2 -63 2 0 11 149 46 161 38 13 -8 11 9 -7 51 -19 45 -11 85 24 126 39
47 83 59 139 38z m83 -176 c0 -31 -17 -73 -31 -73 -13 0 -69 58 -69 72 0 5 14
24 31 41 l31 31 19 -25 c10 -13 19 -34 19 -46z m-620 -6 c72 -24 88 -32 67
-35 -35 -4 -155 33 -187 59 l-25 20 25 -7 c14 -3 68 -20 120 -37z m508 -39
c18 -18 15 -28 -8 -28 -11 0 -20 2 -20 4 0 2 -3 11 -6 20 -7 19 16 22 34 4z
m-474 -34 c26 -10 7 -24 -32 -24 -37 0 -37 0 -12 14 14 8 26 14 27 15 1 1 8
-2 17 -5z m337 -115 c18 -18 21 -30 17 -83 -3 -33 -10 -73 -16 -88 -11 -26
-16 -28 -67 -28 -49 0 -56 2 -51 18 2 9 7 48 11 86 5 53 12 74 30 92 30 30 49
30 76 3z m-766 -121 c26 -12 34 -28 13 -28 -7 0 -26 9 -43 20 -34 22 -14 28
30 8z m1153 -10 c2 -11 -6 -18 -28 -23 -37 -8 -44 -4 -35 25 5 16 13 20 33 18
15 -2 28 -10 30 -20z m-1464 -1 c27 -20 18 -81 -12 -85 -30 -4 -52 14 -52 43
0 53 26 70 64 42z m173 -63 c-3 -3 -12 -4 -19 -1 -8 3 -5 6 6 6 11 1 17 -2 13
-5z m721 -29 c-3 -3 -9 2 -12 12 -6 14 -5 15 5 6 7 -7 10 -15 7 -18z m312 -25
c36 -5 68 -10 73 -10 4 0 7 -6 7 -14 0 -19 -45 -26 -170 -26 -95 0 -109 2
-125 20 -41 46 39 57 215 30z m388 -87 c2 -40 -1 -73 -6 -73 -4 0 -19 14 -31
31 -13 17 -38 37 -57 45 -68 28 -24 75 66 70 24 -1 25 -4 28 -73z m119 45 c-3
-8 -6 -5 -6 6 -1 11 2 17 5 13 3 -3 4 -12 1 -19z m-820 6 c-3 -3 -12 -4 -19
-1 -8 3 -5 6 6 6 11 1 17 -2 13 -5z m773 -4 c0 -5 -2 -10 -4 -10 -3 0 -8 5
-11 10 -3 6 -1 10 4 10 6 0 11 -4 11 -10z m-1800 -4 c0 -3 -4 -8 -10 -11 -5
-3 -10 -1 -10 4 0 6 5 11 10 11 6 0 10 -2 10 -4z m1057 -33 c-3 -10 -5 -4 -5
12 0 17 2 24 5 18 2 -7 2 -21 0 -30z m-160 1 c-3 -3 -12 -4 -19 -1 -8 3 -5 6
6 6 11 1 17 -2 13 -5z m193 -19 c-7 -9 -15 -13 -17 -11 -6 6 20 36 26 30 2 -2
-2 -10 -9 -19z m-160 0 c0 -8 -2 -15 -4 -15 -2 0 -6 7 -10 15 -3 8 -1 15 4 15
6 0 10 -7 10 -15z m-783 -102 c-9 -9 -26 7 -42 38 -12 23 -13 34 -4 51 11 20
13 18 31 -31 11 -29 18 -55 15 -58z m191 80 c-2 -10 -10 -18 -18 -18 -8 0 -16
8 -18 18 -2 12 3 17 18 17 15 0 20 -5 18 -17z m25 -8 c-7 -21 -13 -19 -13 6 0
11 4 18 10 14 5 -3 7 -12 3 -20z m-117 -32 c38 -29 31 -46 -15 -34 -19 5 -27
15 -29 34 -4 34 1 34 44 0z m749 17 c-10 -16 -63 -41 -69 -32 -11 19 8 31 67
41 5 0 5 -4 2 -9z m823 -64 c59 -96 74 -150 75 -261 1 -111 -18 -179 -74 -267
-31 -48 -121 -138 -138 -138 -5 0 -11 10 -13 22 -2 14 -12 24 -28 28 l-25 6
25 7 c14 3 49 29 77 57 128 130 159 321 77 483 -23 46 -33 117 -16 117 4 0 22
-24 40 -54z m-442 6 c79 -12 132 -31 172 -60 48 -34 45 -66 -25 -254 l-24 -67
-37 6 c-59 8 -62 10 -62 51 0 37 14 84 42 140 21 42 3 47 -206 48 -201 2 -232
8 -266 49 -32 39 -18 58 63 86 41 15 75 17 167 15 63 -2 142 -8 176 -14z
m-752 -91 c-2 -46 -6 -56 -35 -82 l-33 -29 -188 0 c-150 0 -195 3 -218 15 -29
15 -36 26 -25 37 3 3 34 -1 70 -7 98 -19 285 -19 328 -1 36 15 67 58 67 94 0
22 10 34 24 29 6 -2 10 -27 10 -56z m1365 -118 c23 -44 41 -86 41 -92 0 -10
-74 -51 -92 -51 -4 0 -8 33 -8 73 0 64 -7 100 -34 197 -13 47 50 -38 93 -127z
m-984 -5 c167 -20 153 -26 -57 -27 -128 -1 -208 3 -208 9 0 5 12 16 28 25 29
16 58 15 237 -7z m-13 -123 c3 -27 13 -69 21 -92 9 -22 13 -43 11 -46 -3 -3
-20 10 -38 29 -56 57 -106 74 -228 74 -223 0 -337 -74 -417 -272 -7 -20 -18
-28 -36 -28 -22 0 -25 4 -25 38 1 86 80 219 166 278 96 66 134 74 349 71 l190
-2 7 -50z m243 45 c3 -5 2 -10 -4 -10 -22 0 -71 -54 -82 -90 -27 -89 26 -191
106 -206 30 -5 35 -10 35 -35 0 -23 -3 -27 -17 -22 -67 24 -150 99 -193 172
-37 64 -68 170 -55 191 8 13 202 13 210 0z m-860 -49 c8 -14 -16 -62 -29 -58
-13 4 -20 33 -12 53 6 16 32 19 41 5z m1878 -70 c35 -21 87 -79 87 -95 0 -4
-19 8 -41 28 -47 40 -115 66 -171 66 -119 0 -237 -113 -238 -227 0 -25 -5 -43
-11 -43 -8 0 -10 22 -7 68 4 86 47 159 117 200 77 45 194 46 264 3z m-1472 12
l64 -8 -85 -5 c-97 -6 -139 -2 -118 11 16 11 57 11 139 2z m697 -22 c11 -7 12
-21 1 -84 -11 -63 -10 -78 1 -92 19 -23 59 -42 108 -50 24 -4 42 -12 42 -20 0
-27 -93 -34 -157 -11 -35 12 -42 12 -55 -1 -11 -10 -25 -13 -52 -8 l-36 7 0
57 c0 52 15 170 25 199 5 14 102 17 123 3z m-538 -28 c33 -13 -40 -21 -195
-22 -88 -1 -167 -6 -175 -11 -10 -6 55 -10 192 -10 113 0 213 -3 222 -6 47
-18 -6 -24 -218 -24 -146 0 -237 -4 -241 -10 -4 -7 58 -10 177 -11 243 0 310
-6 326 -26 17 -23 15 -98 -3 -113 -11 -9 -104 -14 -346 -17 l-331 -5 7 33 c12
54 45 118 65 124 10 3 20 16 22 28 2 14 11 23 26 25 13 2 27 14 32 27 5 12 14
25 21 27 18 6 401 -2 419 -9z m1271 -4 c34 -12 89 -55 89 -71 0 -4 -28 -8 -63
-8 -73 0 -124 -23 -227 -102 -34 -27 -68 -48 -76 -48 -21 0 -18 74 5 118 51
100 165 146 272 111z m-1098 -133 c29 -30 72 -63 95 -75 68 -35 62 -41 -46
-41 l-98 0 0 58 c1 31 -2 69 -7 85 -4 15 -5 27 -3 27 3 0 29 -24 59 -54z
m1224 -38 c42 -44 56 -83 48 -138 -14 -99 -105 -180 -203 -180 -72 0 -146 39
-173 92 -20 39 -26 104 -9 93 6 -3 10 -17 10 -31 0 -13 4 -24 9 -24 5 0 11 -8
13 -18 3 -11 22 -32 42 -47 75 -57 193 -40 247 36 43 61 35 168 -16 223 -35
38 -5 32 32 -6z m-193 -23 c31 -57 54 -77 76 -65 27 15 36 -6 13 -32 -22 -25
-72 -48 -90 -41 -9 4 -9 10 3 29 15 22 14 27 -10 74 -14 27 -26 54 -26 60 0
20 16 9 34 -25z m89 16 c24 -15 26 -19 12 -25 -29 -11 -42 -7 -53 19 -14 31 0
33 41 6z m-133 -93 c0 -10 -40 -31 -47 -24 -3 2 1 21 7 42 l13 37 13 -24 c7
-13 13 -27 14 -31z m180 -73 c-12 -20 -30 -40 -41 -45 -25 -14 -78 -15 -109
-2 -24 10 -24 11 8 11 61 2 136 54 149 105 l8 31 3 -33 c2 -21 -4 -45 -18 -67z
m-1770 31 c0 -7 10 -26 22 -41 20 -26 24 -27 87 -22 58 4 63 3 46 -9 -29 -21
-98 -18 -129 7 -29 23 -59 73 -49 82 8 9 23 -2 23 -17z m195 15 c4 -8 -91 -51
-114 -51 -15 0 -33 29 -27 45 4 11 22 15 70 15 36 0 67 -4 71 -9z m910 -1 c-4
-6 -107 -10 -276 -10 -173 0 -269 4 -269 10 0 6 99 10 276 10 181 0 273 -3
269 -10z m-897 -140 c-31 -49 -120 -64 -175 -30 -39 24 -43 33 -7 20 42 -16
116 -12 154 9 19 11 36 20 38 20 1 1 -3 -8 -10 -19z"/>
<path d="M1867 3050 c-94 -24 -154 -76 -177 -155 -8 -28 -10 -161 -8 -455 l3
-415 27 -46 c94 -160 442 -153 525 11 24 46 24 46 24 467 0 363 -2 427 -16
460 -37 89 -120 134 -255 139 -47 2 -102 -1 -123 -6z m225 -124 c57 -37 58
-49 58 -469 0 -384 0 -384 -23 -418 -33 -49 -69 -64 -157 -64 -84 0 -128 18
-157 62 -16 25 -18 62 -18 424 0 386 1 398 21 426 36 49 79 65 169 61 54 -3
89 -10 107 -22z"/>
<path d="M2827 3050 c-87 -22 -143 -65 -174 -135 -15 -35 -18 -82 -21 -402 -4
-377 2 -466 36 -531 44 -86 187 -135 329 -112 111 18 165 51 199 125 24 50 24
50 24 465 l0 415 -24 51 c-23 51 -50 75 -115 109 -40 20 -196 29 -254 15z
m220 -126 c62 -45 63 -51 63 -462 0 -412 -2 -425 -62 -461 -74 -46 -208 -36
-263 19 l-30 30 0 404 c0 451 -1 445 70 478 56 26 182 22 222 -8z"/>
<path d="M5898 3047 c-109 -31 -160 -108 -162 -241 l-1 -81 56 -3 57 -3 3 80
c4 75 6 83 37 113 29 30 38 33 104 36 88 4 134 -16 161 -68 15 -30 17 -58 15
-190 l-3 -155 -150 -5 c-136 -5 -154 -7 -195 -30 -35 -20 -51 -38 -75 -85 -29
-59 -30 -63 -30 -210 1 -164 11 -217 51 -265 34 -40 65 -55 140 -70 92 -18
162 5 231 74 29 29 55 50 58 47 3 -3 14 -25 25 -48 15 -34 24 -43 44 -43 l26
0 0 468 c0 282 -5 485 -11 512 -25 111 -112 171 -253 177 -46 2 -101 -3 -128
-10z m270 -767 c4 -164 -4 -196 -63 -248 -64 -56 -136 -74 -203 -51 -52 18
-65 50 -70 176 -6 149 2 199 38 235 l29 29 133 -3 133 -3 3 -135z"/>
<path d="M6920 3053 c-36 -14 -73 -48 -99 -94 -31 -55 -38 -53 -62 14 -16 45
-33 62 -54 53 -13 -5 -15 -75 -15 -566 l0 -560 55 0 c30 0 55 1 55 3 1 1 3
196 6 432 5 456 9 501 55 559 48 62 123 74 170 27 28 -28 29 -34 29 -115 0
-81 1 -86 23 -90 19 -4 43 -3 80 3 11 2 8 175 -5 212 -18 54 -48 90 -92 110
-39 18 -114 24 -146 12z"/>
<path d="M922 3018 c-9 -9 -12 -148 -12 -565 l0 -553 60 0 60 0 0 260 0 260
123 0 c166 0 169 1 165 59 l-3 46 -140 5 -140 5 0 190 0 190 175 5 175 5 1 35
c2 72 8 70 -234 70 -156 0 -221 -3 -230 -12z"/>
<path d="M3633 3019 c-10 -10 -13 -137 -13 -567 l0 -554 198 4 c179 3 201 5
237 25 50 27 80 58 100 105 13 32 15 98 15 430 0 359 -2 397 -19 433 -22 50
-78 100 -128 116 -57 18 -375 24 -390 8z m352 -119 c74 -36 75 -41 75 -441 0
-385 -2 -398 -59 -432 -23 -13 -54 -17 -145 -17 l-116 0 0 448 c0 247 3 452 7
455 3 4 49 7 102 7 74 0 104 -4 136 -20z"/>
<path d="M4577 3023 c-4 -3 -7 -258 -7 -565 l0 -558 55 0 55 0 1 293 c0 160 0
355 0 432 0 77 3 149 8 159 8 22 18 -9 111 -359 34 -126 69 -257 79 -290 l17
-60 48 -3 c27 -2 52 0 57 5 4 4 46 154 94 333 47 179 92 341 100 360 12 31 14
-18 14 -417 l1 -453 60 0 60 0 -2 563 -3 562 -82 3 c-96 3 -89 11 -126 -128
-28 -103 -30 -111 -106 -394 -28 -104 -55 -194 -60 -199 -6 -6 -15 10 -25 44
-17 63 -83 308 -132 498 -52 198 -40 181 -132 181 -43 0 -82 -3 -85 -7z"/>
<path d="M7437 3024 c-4 -4 -7 -224 -7 -490 0 -548 1 -558 72 -618 51 -44 140
-65 201 -46 69 20 104 47 131 102 24 48 26 62 26 185 l0 133 -55 0 -55 0 0
-112 c0 -88 -4 -121 -18 -148 -34 -69 -125 -79 -162 -17 -19 31 -20 51 -18
467 l3 435 128 3 128 3 -3 52 -3 52 -181 3 c-99 1 -183 -1 -187 -4z"/>
<path d="M4283 1439 c-16 -16 -5 -39 18 -39 34 0 34 -31 1 -125 -48 -138 -102
-326 -102 -357 0 -17 5 -28 14 -28 15 0 36 49 36 86 0 21 89 285 125 368 15
36 18 38 51 33 42 -7 85 -37 116 -80 19 -27 23 -45 23 -107 -1 -67 -5 -83 -38
-147 -38 -75 -67 -103 -183 -172 -52 -33 -106 -41 -158 -27 -26 8 -27 7 -17
-11 14 -27 64 -47 97 -39 105 27 234 125 289 220 26 46 55 151 55 199 0 86
-61 177 -145 216 -50 23 -163 29 -182 10z"/>
<path d="M3194 1400 c-29 -12 -74 -75 -91 -129 -11 -37 -12 -54 -2 -88 13 -47
17 -38 -59 -136 -55 -71 -58 -103 -13 -134 48 -33 107 -31 180 6 l58 30 45
-43 c50 -47 112 -81 134 -72 21 8 6 33 -28 47 -36 15 -85 54 -98 79 -8 15 3
30 60 86 39 37 70 73 70 80 0 23 -28 22 -51 -3 -50 -53 -117 -103 -132 -97
-16 6 -77 87 -77 102 0 5 32 42 71 82 99 102 105 114 85 145 -9 13 -24 28 -33
33 -28 14 -96 21 -119 12z m81 -42 c42 -19 32 -49 -36 -112 -64 -60 -83 -67
-98 -37 -15 28 4 83 45 125 38 39 49 42 89 24z m-80 -313 c22 -27 35 -52 31
-61 -3 -8 -25 -24 -48 -34 -77 -35 -139 -20 -123 31 8 23 82 109 95 109 4 0
24 -20 45 -45z"/>
<path d="M5561 1388 c-5 -13 -28 -75 -51 -138 -23 -63 -48 -131 -56 -150 -43
-111 -54 -205 -25 -205 9 0 19 21 27 61 16 79 34 133 95 281 28 67 49 132 47
144 -4 31 -26 35 -37 7z"/>
<path d="M540 1389 c-99 -12 -134 -23 -138 -42 -3 -12 3 -17 22 -17 14 0 28
-4 31 -10 3 -5 -10 -49 -30 -97 -53 -131 -117 -322 -113 -341 7 -37 31 -15 48
43 9 33 28 87 42 120 l26 60 95 6 c102 7 117 12 117 36 0 14 -12 15 -84 11
-46 -3 -89 -2 -95 2 -24 14 45 174 80 185 11 4 61 8 109 9 49 1 92 5 96 9 4 4
1 13 -6 22 -14 17 -86 18 -200 4z"/>
<path d="M2192 1318 c-5 -7 -19 -32 -31 -55 -17 -34 -27 -43 -47 -43 -30 0
-43 -26 -21 -43 14 -11 13 -20 -10 -87 -39 -117 -20 -200 48 -200 39 0 106 28
113 47 9 23 5 24 -45 6 -28 -10 -55 -14 -73 -9 -27 7 -28 8 -21 54 9 65 30
136 50 165 11 18 29 27 59 31 47 7 86 30 73 42 -4 4 -26 7 -48 6 l-40 -3 21
40 c11 22 20 45 20 51 0 14 -35 13 -48 -2z"/>
<path d="M5906 1286 c-25 -40 1 -75 32 -44 17 17 15 68 -2 68 -7 0 -21 -11
-30 -24z"/>
<path d="M6846 1285 c-19 -29 -15 -55 7 -55 21 0 39 26 35 51 -4 32 -23 34
-42 4z"/>
<path d="M1665 1199 c-51 -26 -112 -91 -120 -129 -8 -36 15 -81 55 -110 16
-12 30 -25 30 -30 0 -5 -20 -12 -45 -16 -50 -7 -57 -19 -21 -35 29 -14 89 -4
111 17 20 20 6 47 -53 99 -52 47 -52 62 5 119 53 53 115 64 84 14 -11 -17 -10
-23 1 -34 12 -12 17 -11 35 8 31 33 34 76 7 102 -21 21 -41 20 -89 -5z"/>
<path d="M8395 1203 c-40 -20 -93 -71 -111 -105 -25 -48 -18 -76 32 -127 l46
-46 -45 -10 c-25 -5 -48 -13 -52 -16 -11 -12 55 -31 87 -25 73 15 76 47 8 110
-27 26 -50 52 -50 59 0 40 82 117 126 117 16 0 16 -2 -3 -47 -10 -25 29 -27
49 -4 23 30 23 73 0 94 -23 21 -48 21 -87 0z"/>
<path d="M1017 1148 c-51 -52 -107 -154 -107 -197 0 -67 64 -60 153 18 27 22
50 41 52 41 1 0 12 -16 24 -35 25 -43 66 -65 84 -45 9 10 9 14 -2 18 -8 3 -26
16 -39 29 -23 23 -24 30 -19 87 6 61 5 64 -26 95 -44 42 -69 40 -120 -11z
m101 -29 c3 -19 -64 -105 -108 -137 -17 -13 -38 -21 -46 -18 -13 5 -12 10 2
38 9 18 34 57 56 86 33 44 44 53 66 50 15 -2 28 -10 30 -19z"/>
<path d="M4987 1159 c-52 -43 -77 -96 -77 -163 0 -48 3 -57 31 -80 40 -34 71
-33 111 3 38 34 31 53 -11 28 -40 -24 -68 -21 -87 8 -12 18 -14 31 -6 52 8 26
13 28 54 25 40 -2 50 1 82 31 43 41 49 87 14 111 -34 24 -70 19 -111 -15z m93
-34 c0 -24 -31 -45 -66 -45 -40 0 -43 9 -11 37 36 33 77 37 77 8z"/>
<path d="M6305 1153 c-50 -51 -85 -126 -85 -185 0 -40 4 -50 25 -64 30 -19
104 -14 142 11 33 22 58 64 46 76 -8 8 -27 0 -63 -25 -56 -38 -97 -46 -107
-20 -18 47 65 194 109 194 18 0 19 -4 14 -35 -6 -30 -4 -35 12 -35 36 0 44 68
12 100 -30 30 -63 25 -105 -17z"/>
<path d="M7280 1172 c-55 -29 -112 -120 -118 -185 -4 -47 -1 -57 19 -76 30
-28 45 -27 96 7 72 48 113 117 113 191 0 31 -6 44 -26 60 -33 26 -40 26 -84 3z
m68 -63 c7 -59 -84 -185 -126 -177 -41 8 -6 125 54 185 32 32 68 28 72 -8z"/>
<path d="M7765 1157 c-20 -31 -51 -120 -58 -169 -4 -28 -1 -43 14 -63 24 -30
44 -31 84 -5 40 27 49 25 62 -10 7 -19 18 -30 30 -30 31 0 33 9 11 51 l-20 40
26 72 c29 81 33 112 12 120 -19 8 -32 -10 -40 -53 -15 -82 -84 -171 -120 -157
-23 9 -20 35 13 126 25 66 28 81 16 91 -11 9 -17 6 -30 -13z"/>
<path d="M5865 1107 c-2 -6 -14 -37 -25 -68 -25 -70 -31 -134 -11 -134 14 0
71 150 71 186 0 20 -29 34 -35 16z"/>
<path d="M6813 1112 c-14 -10 -66 -166 -61 -188 8 -43 32 -16 59 66 16 47 28
93 29 102 0 20 -12 29 -27 20z"/>
</g>
</svg>
