<?xml version="1.0" standalone="no"?>
<!DOCTYPE svg PUBLIC "-//W3C//DTD SVG 20010904//EN"
 "http://www.w3.org/TR/2001/REC-SVG-20010904/DTD/svg10.dtd">
<svg version="1.0" xmlns="http://www.w3.org/2000/svg"
 width="1280.000000pt" height="1014.000000pt" viewBox="0 0 1280.000000 1014.000000"
 preserveAspectRatio="xMidYMid meet">
<metadata>
Created by potrace 1.16, written by Peter Selinger 2001-2019
</metadata>
<g transform="translate(0.000000,1014.000000) scale(0.100000,-0.100000)"
fill="#000000" stroke="none">
<path d="M10135 6569 c-339 -33 -657 -188 -910 -443 -252 -253 -390 -531 -439
-884 -20 -143 -20 -258 0 -402 70 -506 376 -937 829 -1169 55 -28 113 -55 130
-61 16 -5 59 -20 95 -33 104 -40 302 -68 470 -68 269 -1 491 54 719 177 136
74 227 141 347 256 241 233 385 506 448 849 21 114 21 378 0 501 -14 88 -54
239 -74 283 -5 11 -23 55 -40 97 -18 43 -57 118 -88 167 -332 525 -874 791
-1487 730z m325 -531 c19 -13 35 -28 37 -34 2 -7 -17 -24 -42 -38 -25 -15 -52
-38 -61 -51 -16 -25 -93 -66 -108 -58 -4 3 -14 21 -22 40 -20 46 -4 103 37
137 41 35 111 36 159 4z m40 -122 c13 -26 7 -91 -10 -101 -15 -10 -49 13 -65
44 -13 27 -13 31 6 55 26 33 52 33 69 2z m-586 -49 c33 -11 54 -23 47 -25 -24
-8 -181 43 -181 58 0 10 50 -3 134 -33z m486 -32 c7 -9 10 -19 6 -22 -8 -9
-38 9 -44 25 -5 17 23 15 38 -3z m-75 -15 c41 -25 67 -64 63 -93 -3 -20 -5
-19 -21 11 -26 48 -84 71 -177 73 l-75 1 50 13 c75 19 123 18 160 -5z m-400
-30 c-3 -5 -18 -10 -33 -9 -24 0 -25 1 -7 9 28 12 47 12 40 0z m337 -109 c21
-18 24 -74 6 -135 -15 -51 -22 -56 -77 -56 l-44 0 8 82 c11 126 46 161 107
109z m386 -123 c2 -11 -6 -18 -27 -23 -40 -9 -54 0 -38 26 15 24 60 22 65 -3z
m-1470 -4 c33 -23 27 -84 -8 -84 -41 0 -66 60 -38 88 15 15 19 15 46 -4z m322
6 c13 -8 13 -10 -2 -10 -9 0 -20 5 -23 10 -8 13 5 13 25 0z m901 -121 c41 -7
69 -17 69 -24 0 -17 -56 -25 -174 -25 -77 0 -103 4 -117 16 -10 9 -15 22 -12
30 7 18 133 19 234 3z m377 -82 c3 -72 -5 -83 -33 -41 -9 14 -32 32 -51 40
-27 12 -35 20 -32 37 2 17 12 23 43 28 69 11 70 11 73 -64z m-1711 20 c6 -14
7 -30 3 -37 -7 -11 -13 -9 -29 11 -11 13 -20 30 -21 37 0 21 36 13 47 -11z
m121 -104 c13 -24 0 -40 -16 -20 -22 26 -30 63 -19 83 10 18 11 17 17 -11 4
-16 12 -40 18 -52z m202 58 c0 -13 -26 -32 -33 -24 -14 13 -6 33 13 33 11 0
20 -4 20 -9z m655 -31 c-10 -17 -63 -41 -69 -31 -9 15 23 33 67 40 5 0 5 -4 2
-9z m-741 -26 c23 -9 20 -24 -4 -24 -11 0 -20 7 -20 15 0 17 2 18 24 9z m1584
-84 c19 -36 33 -83 41 -135 25 -172 -18 -305 -136 -422 -46 -47 -59 -52 -67
-25 -4 12 11 36 49 76 86 93 124 187 125 313 0 39 -4 75 -10 78 -5 3 -10 15
-10 25 0 11 -11 43 -24 72 -31 69 -36 85 -28 92 9 10 27 -13 60 -74z m-467 52
c76 -12 163 -43 190 -68 29 -26 25 -67 -19 -194 -39 -113 -33 -105 -83 -108
-42 -3 -47 -1 -53 21 -3 13 -4 32 -2 43 12 58 30 115 37 120 8 5 13 42 7 45
-2 1 -95 4 -208 8 -177 6 -210 10 -238 27 -35 20 -52 58 -34 76 6 6 34 19 64
29 59 20 214 21 339 1z m-746 -101 c-5 -34 -15 -54 -38 -73 l-31 -28 -190 0
c-191 0 -191 0 -221 26 l-30 25 35 -7 c58 -11 328 -20 363 -11 45 12 66 34 73
76 10 61 12 65 30 50 12 -10 14 -23 9 -58z m1316 -24 c32 -50 89 -163 89 -175
0 -7 -82 -52 -95 -52 -3 0 -5 35 -5 78 0 42 -7 102 -15 132 -17 65 -17 60 -7
60 4 0 19 -19 33 -43z m-931 -93 c127 -15 105 -22 -77 -23 -111 -1 -193 3
-193 8 0 28 113 34 270 15z m-26 -80 c3 -9 6 -28 6 -44 0 -15 7 -47 15 -70 22
-63 19 -66 -26 -25 -55 49 -91 63 -185 71 -147 11 -287 -37 -369 -127 -32 -36
-68 -101 -88 -161 -4 -11 -17 -18 -33 -18 -26 0 -26 2 -22 48 13 133 132 275
271 323 73 26 421 28 431 3z m209 -19 c-17 -14 -39 -40 -47 -57 -18 -35 -22
-143 -6 -133 6 3 10 -2 10 -12 1 -23 44 -73 64 -73 8 0 18 -4 21 -10 3 -5 17
-10 31 -10 17 0 24 -5 24 -20 0 -18 -3 -19 -22 -9 -60 30 -108 65 -108 78 0 8
-3 11 -6 8 -16 -16 -104 130 -104 171 0 12 -4 24 -10 27 -5 3 -10 19 -10 36
l0 29 98 0 97 0 -32 -25z m-825 -55 c-17 -50 -47 -28 -34 25 5 21 10 24 26 15
16 -9 17 -14 8 -40z m1879 -40 c49 -28 114 -98 79 -84 -9 3 -16 10 -16 14 0 4
-27 21 -59 39 -132 70 -283 21 -350 -114 -11 -22 -20 -33 -21 -24 0 20 23 69
33 69 5 0 6 4 3 9 -9 14 64 82 109 102 24 11 65 18 105 18 54 1 73 -4 117 -29z
m-1482 10 c22 -6 9 -8 -48 -9 -50 -1 -76 3 -72 9 7 11 75 11 120 0z m695 -19
c28 -8 29 -16 13 -100 -10 -51 -9 -55 16 -83 18 -20 43 -34 78 -41 28 -7 53
-16 55 -22 6 -18 -103 -25 -150 -8 -38 12 -46 12 -60 1 -11 -9 -28 -12 -47 -9
-26 5 -30 11 -33 41 -3 33 13 174 24 213 6 18 54 22 104 8z m-530 -31 c10 -6
-40 -10 -150 -10 -93 0 -182 -5 -205 -12 l-40 -11 30 -9 c17 -4 48 -8 70 -7
127 5 316 -2 310 -11 -4 -6 -85 -10 -208 -11 -195 0 -275 -9 -217 -23 14 -3
130 -7 258 -8 254 -3 252 -3 252 -63 0 -60 -8 -72 -48 -72 -20 0 -168 -3 -328
-7 -165 -5 -294 -5 -296 0 -9 14 25 110 46 133 11 12 25 21 33 21 8 0 13 6 12
13 -3 27 2 35 31 41 17 3 30 9 29 13 -5 32 2 33 204 33 113 0 209 -5 217 -10z
m1281 -5 c48 -17 92 -53 83 -67 -4 -6 -21 -7 -40 -4 -49 10 -132 -18 -189 -64
-67 -53 -122 -90 -135 -90 -18 0 -11 72 11 117 49 101 162 146 270 108z
m-1007 -203 l60 -37 -47 -3 c-25 -2 -69 -2 -97 0 l-51 3 -3 81 -4 81 41 -44
c22 -24 67 -60 101 -81z m1023 32 c25 -12 31 -19 21 -25 -23 -15 -43 -9 -55
16 -13 30 -12 30 34 9z m139 -29 c18 -28 21 -116 5 -157 -30 -80 -131 -136
-219 -123 -82 12 -152 73 -152 132 l0 28 14 -27 c23 -43 50 -77 63 -78 6 0 13
-6 16 -12 2 -9 28 -13 79 -13 67 0 78 3 112 29 47 35 80 105 73 151 -3 18 -14
51 -25 74 -19 39 -19 40 -1 30 10 -5 26 -21 35 -34z m-146 -57 c18 11 20 10
20 -8 0 -22 -53 -60 -83 -60 -15 0 -16 3 -6 21 11 21 9 44 -6 84 -5 12 4 7 24
-15 27 -31 33 -33 51 -22z m-125 -18 c-3 -6 -13 -10 -21 -10 -15 0 -19 27 -7
55 5 15 8 14 20 -9 8 -15 11 -31 8 -36z m200 -33 c-4 -14 -20 -40 -36 -57 -24
-24 -37 -30 -72 -29 -23 0 -51 4 -62 9 -16 7 -12 9 18 9 46 1 124 44 140 78
13 29 20 24 12 -10z m-1780 -17 c9 -41 36 -53 108 -48 51 4 57 3 41 -9 -28
-20 -97 -16 -127 7 -33 26 -62 80 -42 80 7 0 16 -14 20 -30z m150 9 c-48 -23
-98 -21 -103 4 -3 15 5 17 70 16 l73 -1 -40 -19z m688 14 c-13 -2 -33 -2 -45
0 -13 2 -3 4 22 4 25 0 35 -2 23 -4z m54 1 c-3 -3 -12 -4 -19 -1 -8 3 -5 6 6
6 11 1 17 -2 13 -5z m81 -1 c-10 -2 -28 -2 -40 0 -13 2 -5 4 17 4 22 1 32 -1
23 -4z m55 0 c-7 -2 -19 -2 -25 0 -7 3 -2 5 12 5 14 0 19 -2 13 -5z m44 1 c-3
-3 -12 -4 -19 -1 -8 3 -5 6 6 6 11 1 17 -2 13 -5z m-873 -138 c-13 -33 -108
-52 -159 -31 -27 12 -23 13 55 16 54 3 85 9 88 17 2 6 8 12 13 12 4 0 6 -6 3
-14z"/>
<path d="M2107 6110 c-94 -24 -154 -76 -177 -155 -8 -28 -10 -161 -8 -450 3
-408 3 -410 27 -458 82 -167 443 -164 528 3 23 46 23 46 24 467 0 363 -3 427
-16 460 -37 88 -117 132 -254 138 -47 3 -103 0 -124 -5z m225 -124 c58 -38 59
-48 56 -480 l-3 -395 -28 -29 c-71 -75 -252 -65 -304 15 -16 25 -18 62 -18
424 0 386 1 398 21 426 36 49 79 65 169 61 54 -3 89 -10 107 -22z"/>
<path d="M3059 6107 c-108 -31 -164 -92 -179 -197 -13 -86 -13 -699 0 -774 20
-122 74 -176 204 -202 66 -14 90 -14 153 -4 111 18 165 51 199 125 24 50 24
50 24 465 l0 415 -24 51 c-23 50 -50 75 -114 108 -44 22 -202 30 -263 13z
m228 -123 c62 -45 63 -51 63 -462 0 -412 -2 -425 -62 -461 -74 -46 -208 -36
-263 19 l-30 30 -3 395 c-3 451 -3 451 72 487 57 26 182 22 223 -8z"/>
<path d="M6155 6111 c-58 -15 -115 -52 -140 -89 -29 -45 -47 -123 -43 -188 l3
-49 55 0 55 0 6 78 c5 71 8 81 37 110 29 29 38 32 104 35 88 4 134 -16 161
-68 15 -30 17 -58 15 -190 l-3 -155 -150 -5 c-179 -7 -217 -21 -261 -96 -38
-64 -52 -197 -37 -335 17 -153 60 -205 188 -229 94 -18 162 4 232 74 29 29 55
50 58 47 3 -3 14 -25 25 -48 15 -34 24 -43 44 -43 l26 0 0 468 c0 282 -5 485
-11 512 -25 111 -109 170 -251 176 -46 2 -96 0 -113 -5z m250 -793 c0 -143 -2
-159 -21 -185 -59 -79 -155 -118 -234 -94 -60 18 -73 48 -78 178 -6 139 3 196
33 231 22 25 29 27 127 32 56 3 119 3 138 0 l35 -5 0 -157z"/>
<path d="M7165 6113 c-38 -10 -76 -45 -104 -94 -31 -55 -38 -53 -62 14 -16 45
-33 62 -54 53 -13 -5 -15 -75 -15 -566 l0 -560 55 0 c46 0 55 3 55 18 -1 9 2
204 5 433 6 461 10 492 68 556 26 28 42 36 79 40 42 5 50 3 78 -25 29 -29 30
-34 30 -116 l0 -86 56 0 56 0 -4 103 c-4 120 -22 166 -78 204 -38 24 -122 38
-165 26z"/>
<path d="M1161 6077 c-8 -11 -10 -162 -9 -563 l3 -549 58 -3 57 -3 0 261 0
260 123 0 c166 0 169 1 165 59 l-3 46 -140 5 -140 5 0 190 0 190 171 3 172 2
4 28 c2 15 1 38 -2 52 l-6 25 -221 3 c-178 2 -222 0 -232 -11z"/>
<path d="M3873 6079 c-10 -10 -13 -137 -13 -567 l0 -554 198 4 c179 3 201 5
237 25 50 27 79 57 99 107 14 33 16 94 16 430 0 357 -2 395 -19 431 -22 50
-78 100 -128 116 -57 18 -375 24 -390 8z m352 -119 c74 -36 75 -41 75 -441 0
-385 -2 -398 -59 -432 -23 -13 -54 -17 -145 -17 l-116 0 0 448 c0 247 3 452 7
455 3 4 49 7 102 7 74 0 104 -4 136 -20z"/>
<path d="M4817 6083 c-4 -3 -7 -258 -7 -565 l0 -558 55 0 55 0 1 433 c0 237 4
440 8 450 9 23 17 -5 106 -338 37 -137 75 -277 84 -310 l17 -60 54 0 54 0 22
80 c13 44 39 143 59 220 80 302 108 401 116 415 5 8 9 -181 9 -437 l0 -453 60
0 60 0 -2 563 -3 562 -82 3 c-96 3 -89 11 -126 -128 -28 -103 -30 -111 -106
-394 -28 -104 -55 -194 -60 -199 -6 -6 -15 10 -25 44 -24 86 -92 342 -131 493
-53 204 -41 186 -133 186 -43 0 -82 -3 -85 -7z"/>
<path d="M7674 6077 c-2 -7 -3 -236 -2 -508 3 -490 3 -494 25 -536 81 -151
314 -143 384 12 15 32 19 66 19 173 l0 132 -55 0 -55 0 0 -112 c0 -88 -4 -121
-18 -148 -34 -69 -125 -79 -162 -17 -19 31 -20 51 -18 467 l3 435 128 3 128 3
-3 52 -3 52 -183 3 c-145 2 -184 0 -188 -11z"/>
<path d="M4521 4496 c-12 -14 -2 -27 32 -39 24 -9 22 -34 -12 -126 -40 -110
-101 -324 -101 -356 0 -15 6 -25 14 -25 15 0 36 49 36 86 0 21 89 285 125 368
15 37 18 38 52 33 44 -8 99 -50 125 -97 48 -86 -12 -273 -110 -344 -126 -92
-183 -113 -256 -92 -26 8 -27 7 -17 -11 14 -27 64 -47 97 -39 105 27 234 125
289 220 26 46 55 151 55 199 0 86 -61 177 -145 216 -53 25 -165 30 -184 7z"/>
<path d="M3438 4463 c-25 -6 -84 -91 -97 -137 -7 -28 -7 -52 1 -83 8 -34 8
-47 -3 -62 -8 -10 -32 -43 -55 -72 -49 -66 -57 -85 -44 -110 30 -54 116 -63
208 -19 l62 29 30 -33 c37 -40 125 -90 145 -82 23 9 7 32 -36 51 -46 21 -103
81 -92 98 4 6 35 38 70 70 35 33 63 66 63 73 0 28 -33 12 -98 -46 -37 -33 -70
-60 -75 -60 -13 0 -77 73 -83 95 -4 16 14 41 75 104 44 46 82 93 85 104 6 26
-44 77 -76 77 -13 0 -32 2 -43 4 -11 2 -28 2 -37 -1z m77 -45 c42 -19 32 -49
-36 -112 -64 -60 -83 -67 -98 -37 -15 28 4 83 45 125 38 39 49 42 89 24z m-80
-313 c22 -27 35 -52 31 -61 -3 -8 -25 -24 -48 -34 -77 -35 -139 -20 -123 31 8
23 82 109 95 109 4 0 24 -20 45 -45z"/>
<path d="M5801 4448 c-80 -198 -153 -424 -149 -462 5 -54 30 -38 44 29 16 81
42 158 98 292 46 109 54 152 29 161 -7 2 -17 -7 -22 -20z"/>
<path d="M780 4449 c-97 -12 -135 -23 -138 -41 -2 -12 5 -18 25 -20 35 -4 34
-24 -3 -112 -46 -109 -114 -310 -112 -331 5 -40 31 -20 44 34 8 29 27 83 43
120 l30 66 83 6 c99 7 128 15 128 36 0 14 -12 15 -84 11 -46 -3 -89 -2 -95 2
-24 14 45 174 80 185 11 4 61 8 109 9 95 1 110 7 90 31 -14 17 -86 18 -200 4z"/>
<path d="M2432 4378 c-5 -7 -19 -32 -31 -55 -17 -34 -27 -43 -47 -43 -30 0
-43 -26 -20 -43 14 -11 14 -19 -10 -87 -41 -118 -20 -200 52 -200 35 0 102 29
108 47 10 24 1 26 -34 8 -17 -9 -48 -15 -68 -13 l-37 3 3 49 c2 56 26 145 46
171 7 10 37 24 67 32 30 8 58 18 64 24 15 15 -14 29 -39 20 -39 -15 -47 -3
-26 39 11 22 20 44 20 50 0 14 -35 13 -48 -2z"/>
<path d="M6146 4342 c-18 -36 -6 -63 21 -46 24 14 31 74 9 74 -9 0 -22 -13
-30 -28z"/>
<path d="M7086 4345 c-19 -29 -15 -55 7 -55 21 0 39 26 35 51 -4 32 -23 34
-42 4z"/>
<path d="M1905 4259 c-81 -43 -133 -115 -120 -167 4 -15 25 -43 47 -64 23 -21
39 -41 35 -44 -3 -3 -24 -8 -46 -11 -46 -6 -52 -18 -17 -34 29 -14 89 -4 111
17 20 20 6 47 -53 99 -52 47 -52 62 5 119 56 55 108 63 85 12 -17 -37 8 -53
35 -23 30 33 34 63 11 92 -24 30 -41 31 -93 4z"/>
<path d="M8635 4263 c-40 -20 -93 -71 -111 -105 -25 -48 -18 -78 31 -125 25
-23 45 -45 45 -47 0 -3 -20 -8 -45 -12 -25 -3 -47 -10 -50 -14 -8 -14 54 -33
87 -26 73 15 76 48 8 109 -27 25 -50 51 -50 59 0 41 81 118 126 118 16 0 16
-2 -3 -47 -10 -25 29 -27 49 -4 23 30 23 73 0 94 -23 21 -48 21 -87 0z"/>
<path d="M1257 4208 c-51 -52 -107 -154 -107 -197 0 -67 64 -60 153 18 27 22
50 41 52 41 1 0 12 -16 24 -35 25 -43 66 -65 84 -45 9 10 9 14 -2 18 -8 3 -26
16 -39 29 -23 23 -24 30 -19 87 6 61 5 64 -26 95 -44 42 -69 40 -120 -11z m99
-23 c4 -8 -2 -27 -12 -42 -30 -46 -114 -123 -135 -123 -10 0 -19 2 -19 5 0 14
35 74 71 123 29 38 46 52 65 52 13 0 27 -7 30 -15z"/>
<path d="M5227 4219 c-52 -43 -77 -96 -77 -163 0 -48 3 -57 31 -80 40 -34 71
-33 111 3 38 34 31 53 -11 28 -40 -24 -68 -21 -87 8 -12 18 -14 31 -6 52 8 26
13 28 54 25 40 -2 50 1 82 31 43 41 49 87 14 111 -34 24 -70 19 -111 -15z m93
-34 c0 -24 -31 -45 -66 -45 -40 0 -43 9 -11 37 36 33 77 37 77 8z"/>
<path d="M6543 4208 c-77 -79 -109 -208 -61 -242 46 -32 135 -12 174 40 42 54
18 64 -46 20 -56 -38 -97 -46 -107 -20 -18 47 65 194 109 194 18 0 19 -4 14
-35 -6 -30 -4 -35 12 -35 36 0 44 68 12 100 -31 31 -61 25 -107 -22z"/>
<path d="M7520 4232 c-19 -11 -52 -44 -74 -75 -31 -44 -40 -67 -44 -110 -4
-47 -1 -57 19 -76 30 -28 45 -27 96 7 72 48 113 117 113 191 0 31 -6 44 -26
60 -33 26 -40 26 -84 3z m68 -63 c7 -59 -84 -185 -126 -177 -41 8 -6 125 54
185 32 32 68 28 72 -8z"/>
<path d="M8012 4227 c-20 -24 -53 -114 -61 -165 -7 -45 -5 -57 11 -77 23 -30
43 -31 83 -5 40 27 48 25 63 -10 13 -27 39 -39 55 -24 3 3 -4 24 -15 45 l-20
40 26 72 c29 81 33 112 12 120 -19 8 -32 -10 -40 -53 -15 -82 -84 -171 -120
-157 -22 9 -20 36 9 113 14 36 25 75 25 85 0 23 -15 32 -28 16z"/>
<path d="M6105 4167 c-2 -6 -13 -37 -24 -67 -11 -30 -22 -68 -25 -85 -7 -34 8
-66 22 -50 12 12 62 164 62 186 0 20 -29 34 -35 16z"/>
<path d="M7053 4172 c-14 -10 -66 -166 -61 -188 8 -43 32 -16 59 66 16 47 28
93 29 102 0 20 -12 29 -27 20z"/>
</g>
</svg>
